<svg width="227" height="34" viewBox="0 0 227 34" fill="none" xmlns="http://www.w3.org/2000/svg">
<path d="M209.695 0.478027H16.958C7.74755 0.478027 0.281006 7.94457 0.281006 17.155C0.281006 26.3655 7.74755 33.832 16.958 33.832H209.695C218.905 33.832 226.372 26.3655 226.372 17.155C226.372 7.94457 218.905 0.478027 209.695 0.478027Z" fill="#EFF0F3"/>
<path d="M23.468 17.243C23.5301 17.2896 23.5805 17.35 23.6152 17.4194C23.6499 17.4888 23.668 17.5654 23.668 17.643C23.668 17.7206 23.6499 17.7972 23.6152 17.8666C23.5805 17.9361 23.5301 17.9964 23.468 18.043L14.857 24.409C14.7827 24.4647 14.6944 24.4987 14.6019 24.507C14.5094 24.5153 14.4164 24.4978 14.3334 24.4562C14.2503 24.4147 14.1805 24.3509 14.1317 24.2719C14.0829 24.1929 14.057 24.1019 14.057 24.009V11.279C14.057 11.1862 14.0829 11.0951 14.1317 11.0162C14.1805 10.9372 14.2503 10.8733 14.3334 10.8318C14.4164 10.7903 14.5094 10.7727 14.6019 10.781C14.6944 10.7894 14.7827 10.8233 14.857 10.879L23.468 17.243Z" fill="black"/>
<path d="M42.919 21.578C42.087 21.578 41.4327 21.2054 40.956 20.46C40.488 19.706 40.254 18.6357 40.254 17.249C40.254 15.8537 40.488 14.792 40.956 14.064C41.4327 13.336 42.087 12.972 42.919 12.972C43.7423 12.972 44.388 13.336 44.856 14.064C45.3327 14.792 45.571 15.8537 45.571 17.249C45.571 18.6357 45.3327 19.706 44.856 20.46C44.388 21.2054 43.7423 21.578 42.919 21.578ZM42.919 20.72C43.4043 20.72 43.7943 20.447 44.089 19.901C44.3837 19.3464 44.531 18.4624 44.531 17.249C44.531 16.0357 44.3837 15.1647 44.089 14.636C43.7943 14.0987 43.4043 13.83 42.919 13.83C42.4337 13.83 42.0393 14.0987 41.736 14.636C41.4413 15.1647 41.294 16.0357 41.294 17.249C41.294 18.4624 41.4413 19.3464 41.736 19.901C42.0393 20.447 42.4337 20.72 42.919 20.72ZM47.7689 16.885C47.5523 16.885 47.3659 16.8114 47.2099 16.664C47.0626 16.508 46.9889 16.313 46.9889 16.079C46.9889 15.8277 47.0626 15.6284 47.2099 15.481C47.3659 15.325 47.5523 15.247 47.7689 15.247C47.9769 15.247 48.1546 15.325 48.3019 15.481C48.4579 15.6284 48.5359 15.8277 48.5359 16.079C48.5359 16.313 48.4579 16.508 48.3019 16.664C48.1546 16.8114 47.9769 16.885 47.7689 16.885ZM47.7689 21.578C47.5523 21.578 47.3659 21.5044 47.2099 21.357C47.0626 21.201 46.9889 21.006 46.9889 20.772C46.9889 20.5207 47.0626 20.3214 47.2099 20.174C47.3659 20.018 47.5523 19.94 47.7689 19.94C47.9769 19.94 48.1546 20.018 48.3019 20.174C48.4579 20.3214 48.5359 20.5207 48.5359 20.772C48.5359 21.006 48.4579 21.201 48.3019 21.357C48.1546 21.5044 47.9769 21.578 47.7689 21.578ZM52.6182 21.578C51.7862 21.578 51.1319 21.2054 50.6552 20.46C50.1872 19.706 49.9532 18.6357 49.9532 17.249C49.9532 15.8537 50.1872 14.792 50.6552 14.064C51.1319 13.336 51.7862 12.972 52.6182 12.972C53.4416 12.972 54.0872 13.336 54.5552 14.064C55.0319 14.792 55.2702 15.8537 55.2702 17.249C55.2702 18.6357 55.0319 19.706 54.5552 20.46C54.0872 21.2054 53.4416 21.578 52.6182 21.578ZM52.6182 20.72C53.1036 20.72 53.4936 20.447 53.7882 19.901C54.0829 19.3464 54.2302 18.4624 54.2302 17.249C54.2302 16.0357 54.0829 15.1647 53.7882 14.636C53.4936 14.0987 53.1036 13.83 52.6182 13.83C52.1329 13.83 51.7386 14.0987 51.4352 14.636C51.1406 15.1647 50.9932 16.0357 50.9932 17.249C50.9932 18.4624 51.1406 19.3464 51.4352 19.901C51.7386 20.447 52.1329 20.72 52.6182 20.72ZM57.3641 15.637C57.3641 16.1744 57.4898 16.6034 57.7411 16.924C58.0011 17.236 58.3868 17.392 58.8981 17.392C59.1755 17.392 59.4658 17.3054 59.7691 17.132C60.0811 16.9587 60.3715 16.677 60.6401 16.287C60.5708 15.481 60.3801 14.87 60.0681 14.454C59.7561 14.0294 59.3358 13.817 58.8071 13.817C58.4085 13.817 58.0661 13.986 57.7801 14.324C57.5028 14.6534 57.3641 15.091 57.3641 15.637ZM58.5081 21.578C58.0661 21.578 57.6761 21.4957 57.3381 21.331C57.0088 21.1577 56.7315 20.9497 56.5061 20.707L57.1041 20.031C57.2775 20.2304 57.4811 20.3907 57.7151 20.512C57.9578 20.6334 58.2091 20.694 58.4691 20.694C58.8591 20.694 59.2188 20.5814 59.5481 20.356C59.8775 20.1307 60.1418 19.758 60.3411 19.238C60.5491 18.718 60.6575 18.016 60.6661 17.132C60.4061 17.4614 60.1028 17.7214 59.7561 17.912C59.4095 18.1027 59.0628 18.198 58.7161 18.198C58.0055 18.198 57.4335 17.9857 57.0001 17.561C56.5755 17.1277 56.3631 16.4864 56.3631 15.637C56.3631 15.1084 56.4758 14.6447 56.7011 14.246C56.9265 13.8474 57.2211 13.5354 57.5851 13.31C57.9578 13.0847 58.3651 12.972 58.8071 12.972C59.3531 12.972 59.8428 13.1194 60.2761 13.414C60.7095 13.7087 61.0475 14.1507 61.2901 14.74C61.5415 15.3294 61.6671 16.0704 61.6671 16.963C61.6671 18.0724 61.5155 18.965 61.2121 19.641C60.9175 20.317 60.5318 20.811 60.0551 21.123C59.5785 21.4264 59.0628 21.578 58.5081 21.578ZM65.0376 23.502L68.5086 12.192H69.2886L65.8176 23.502H65.0376ZM75.2921 21.578C74.4601 21.578 73.8057 21.2054 73.3291 20.46C72.8611 19.706 72.6271 18.6357 72.6271 17.249C72.6271 15.8537 72.8611 14.792 73.3291 14.064C73.8057 13.336 74.4601 12.972 75.2921 12.972C76.1154 12.972 76.7611 13.336 77.2291 14.064C77.7057 14.792 77.9441 15.8537 77.9441 17.249C77.9441 18.6357 77.7057 19.706 77.2291 20.46C76.7611 21.2054 76.1154 21.578 75.2921 21.578ZM75.2921 20.72C75.7774 20.72 76.1674 20.447 76.4621 19.901C76.7567 19.3464 76.9041 18.4624 76.9041 17.249C76.9041 16.0357 76.7567 15.1647 76.4621 14.636C76.1674 14.0987 75.7774 13.83 75.2921 13.83C74.8067 13.83 74.4124 14.0987 74.1091 14.636C73.8144 15.1647 73.6671 16.0357 73.6671 17.249C73.6671 18.4624 73.8144 19.3464 74.1091 19.901C74.4124 20.447 74.8067 20.72 75.2921 20.72ZM80.142 16.885C79.9253 16.885 79.739 16.8114 79.583 16.664C79.4356 16.508 79.362 16.313 79.362 16.079C79.362 15.8277 79.4356 15.6284 79.583 15.481C79.739 15.325 79.9253 15.247 80.142 15.247C80.35 15.247 80.5276 15.325 80.675 15.481C80.831 15.6284 80.909 15.8277 80.909 16.079C80.909 16.313 80.831 16.508 80.675 16.664C80.5276 16.8114 80.35 16.885 80.142 16.885ZM80.142 21.578C79.9253 21.578 79.739 21.5044 79.583 21.357C79.4356 21.201 79.362 21.006 79.362 20.772C79.362 20.5207 79.4356 20.3214 79.583 20.174C79.739 20.018 79.9253 19.94 80.142 19.94C80.35 19.94 80.5276 20.018 80.675 20.174C80.831 20.3214 80.909 20.5207 80.909 20.772C80.909 21.006 80.831 21.201 80.675 21.357C80.5276 21.5044 80.35 21.578 80.142 21.578ZM84.8223 21.578C84.1636 21.578 83.6133 21.461 83.1713 21.227C82.7293 20.9844 82.3696 20.7114 82.0923 20.408L82.6383 19.706C82.8896 19.966 83.1843 20.1957 83.5223 20.395C83.8603 20.5944 84.2719 20.694 84.7573 20.694C85.2599 20.694 85.6716 20.5554 85.9923 20.278C86.3129 20.0007 86.4733 19.6324 86.4733 19.173C86.4733 18.8437 86.3866 18.5577 86.2133 18.315C86.0486 18.0637 85.7713 17.8687 85.3813 17.73C84.9999 17.5914 84.4799 17.522 83.8213 17.522V16.703C84.4106 16.703 84.8743 16.6337 85.2123 16.495C85.5589 16.3564 85.8059 16.17 85.9533 15.936C86.1006 15.702 86.1743 15.442 86.1743 15.156C86.1743 14.7487 86.0443 14.428 85.7843 14.194C85.5329 13.96 85.1863 13.843 84.7443 13.843C84.3976 13.843 84.0769 13.921 83.7823 14.077C83.4963 14.233 83.2276 14.4367 82.9763 14.688L82.4043 14.012C82.7249 13.7087 83.0803 13.4617 83.4703 13.271C83.8603 13.0717 84.2979 12.972 84.7833 12.972C85.5026 12.972 86.0963 13.1584 86.5643 13.531C87.0323 13.895 87.2663 14.4107 87.2663 15.078C87.2663 15.5807 87.1276 15.9924 86.8503 16.313C86.5729 16.6337 86.2089 16.8807 85.7583 17.054V17.106C86.2609 17.2187 86.6856 17.457 87.0323 17.821C87.3789 18.1764 87.5523 18.64 87.5523 19.212C87.5523 19.6974 87.4309 20.1177 87.1883 20.473C86.9456 20.8284 86.6163 21.1014 86.2003 21.292C85.7929 21.4827 85.3336 21.578 84.8223 21.578ZM91.2582 21.578C90.5995 21.578 90.0535 21.461 89.6202 21.227C89.1869 20.993 88.8272 20.733 88.5412 20.447L89.0612 19.745C89.3125 19.9877 89.6029 20.2087 89.9322 20.408C90.2615 20.5987 90.6689 20.694 91.1542 20.694C91.6655 20.694 92.0945 20.525 92.4412 20.187C92.7965 19.8404 92.9742 19.3767 92.9742 18.796C92.9742 18.224 92.8139 17.7777 92.4932 17.457C92.1725 17.1364 91.7435 16.976 91.2062 16.976C90.9202 16.976 90.6732 17.0194 90.4652 17.106C90.2659 17.1927 90.0405 17.3184 89.7892 17.483L89.2172 17.119L89.4902 13.128H93.6372V14.051H90.4262L90.2052 16.508C90.4045 16.404 90.6039 16.3217 90.8032 16.261C91.0025 16.2004 91.2279 16.17 91.4792 16.17C91.9559 16.17 92.3849 16.2654 92.7662 16.456C93.1562 16.638 93.4682 16.9197 93.7022 17.301C93.9362 17.6824 94.0532 18.172 94.0532 18.77C94.0532 19.368 93.9189 19.8794 93.6502 20.304C93.3902 20.72 93.0479 21.0364 92.6232 21.253C92.1985 21.4697 91.7435 21.578 91.2582 21.578Z" fill="#5F6368"/>
<path d="M174.209 16.174H113.063C111.979 16.174 111.101 17.0525 111.101 18.136C111.101 19.2196 111.979 20.098 113.063 20.098H174.209C175.293 20.098 176.171 19.2196 176.171 18.136C176.171 17.0525 175.293 16.174 174.209 16.174Z" fill="#DCDCDC"/>
<path d="M204.414 24.544C204.421 24.722 204.384 24.899 204.305 25.0586C204.225 25.2182 204.107 25.3552 203.961 25.457C203.861 25.5206 203.745 25.5553 203.626 25.557C203.531 25.5547 203.438 25.5329 203.352 25.493C203.266 25.4531 203.189 25.3959 203.126 25.325L198.817 20.749H196.524C196.287 20.7163 196.072 20.5925 195.925 20.4039C195.778 20.2153 195.71 19.9768 195.736 19.739V15.722C195.71 15.4843 195.778 15.2459 195.925 15.0573C196.072 14.8688 196.287 14.7449 196.524 14.712H198.817L203.123 10.139C203.223 10.02 203.363 9.94088 203.517 9.91594C203.671 9.89099 203.828 9.92188 203.961 10.003C204.107 10.1048 204.225 10.2418 204.305 10.4014C204.384 10.561 204.421 10.738 204.414 10.916V24.544ZM207.441 22.967H207.384C207.274 22.9634 207.167 22.9344 207.07 22.8824C206.974 22.8303 206.89 22.7566 206.827 22.667L206.722 22.532C206.587 22.3432 206.508 22.1199 206.494 21.888C206.481 21.6561 206.533 21.4252 206.646 21.222C207.247 20.1562 207.558 18.9508 207.546 17.727C207.563 16.4217 207.209 15.1385 206.524 14.027C206.4 13.8214 206.339 13.5839 206.348 13.3439C206.358 13.1039 206.438 12.872 206.578 12.677L206.683 12.542C206.75 12.4461 206.84 12.3689 206.945 12.3174C207.05 12.266 207.166 12.2421 207.283 12.248C207.401 12.26 207.514 12.2996 207.613 12.3638C207.712 12.4279 207.795 12.5147 207.854 12.617C208.804 14.1498 209.296 15.922 209.272 17.725C209.289 19.4195 208.856 21.0881 208.018 22.561C207.962 22.6701 207.88 22.764 207.779 22.8347C207.679 22.9054 207.563 22.9508 207.441 22.967ZM210.698 26.086C210.638 26.1861 210.555 26.2707 210.456 26.3327C210.357 26.3947 210.245 26.4325 210.129 26.443H210.096C209.986 26.4393 209.879 26.4103 209.782 26.3583C209.686 26.3062 209.602 26.2326 209.539 26.143L209.439 26.01C209.297 25.8129 209.217 25.5782 209.209 25.3355C209.201 25.0928 209.265 24.8532 209.393 24.647C210.702 22.5765 211.386 20.1725 211.363 17.723C211.392 15.1882 210.657 12.7034 209.254 10.592C209.12 10.3852 209.051 10.1427 209.056 9.89607C209.062 9.64949 209.142 9.41038 209.286 9.21002L209.386 9.07702C209.45 8.98287 209.537 8.90618 209.639 8.85382C209.74 8.80147 209.853 8.77508 209.967 8.77702C210.082 8.78548 210.194 8.82115 210.293 8.88112C210.392 8.94109 210.475 9.02364 210.536 9.12202C212.232 11.6669 213.12 14.6641 213.086 17.722C213.115 20.6825 212.286 23.588 210.698 26.087V26.086Z" fill="black"/>
<path d="M121.066 16.174H107.383C106.299 16.174 105.421 17.0525 105.421 18.136C105.421 19.2196 106.299 20.098 107.383 20.098H121.066C122.15 20.098 123.028 19.2196 123.028 18.136C123.028 17.0525 122.15 16.174 121.066 16.174Z" fill="black"/>
</svg>
