<svg width="11" height="15" viewBox="0 0 11 15" fill="none" xmlns="http://www.w3.org/2000/svg">
<path d="M10.205 7.24302C10.2671 7.2896 10.3175 7.34999 10.3522 7.41942C10.387 7.48884 10.405 7.5654 10.405 7.64302C10.405 7.72064 10.387 7.7972 10.3522 7.86663C10.3175 7.93606 10.2671 7.99645 10.205 8.04302L1.59403 14.409C1.51974 14.4647 1.43141 14.4987 1.33893 14.507C1.24645 14.5153 1.15347 14.4978 1.07042 14.4562C0.98737 14.4147 0.917521 14.3509 0.868704 14.2719C0.819886 14.1929 0.794029 14.1019 0.794029 14.009V1.27902C0.794029 1.18617 0.819886 1.09514 0.868704 1.01616C0.917521 0.937169 0.98737 0.873335 1.07042 0.831809C1.15347 0.790282 1.24645 0.772704 1.33893 0.781043C1.43141 0.789382 1.51974 0.823309 1.59403 0.879022L10.205 7.24302Z" fill="black"/>
</svg>
