<svg width="19" height="19" viewBox="0 0 19 19" fill="none" xmlns="http://www.w3.org/2000/svg">
<path d="M9.41999 16.544C9.42738 16.722 9.38973 16.899 9.31055 17.0586C9.23137 17.2182 9.1132 17.3552 8.96699 17.457C8.8667 17.5206 8.75075 17.5553 8.63199 17.557C8.53719 17.5547 8.44388 17.5329 8.35786 17.493C8.27184 17.4531 8.19495 17.3959 8.13199 17.325L3.82299 12.749H1.52999C1.29303 12.7163 1.07815 12.5925 0.931011 12.4039C0.78387 12.2153 0.71606 11.9768 0.741991 11.739V7.72202C0.71632 7.48427 0.784227 7.24587 0.931322 7.05733C1.07842 6.8688 1.29314 6.74494 1.52999 6.71202H3.82299L8.12899 2.13902C8.22942 2.02001 8.36912 1.94088 8.52282 1.91594C8.67653 1.89099 8.83408 1.92188 8.96699 2.00302C9.1132 2.10481 9.23137 2.24184 9.31055 2.40144C9.38973 2.56103 9.42738 2.73801 9.41999 2.91602V16.544ZM12.447 14.967H12.39C12.2803 14.9634 12.1729 14.9344 12.0763 14.8824C11.9797 14.8303 11.8964 14.7566 11.833 14.667L11.728 14.532C11.5927 14.3432 11.5138 14.1199 11.5003 13.888C11.4869 13.6561 11.5395 13.4252 11.652 13.222C12.2535 12.1562 12.5639 10.9508 12.552 9.72701C12.569 8.42173 12.2145 7.13853 11.53 6.02702C11.4058 5.82144 11.3446 5.58391 11.3542 5.34391C11.3638 5.1039 11.4437 4.87201 11.584 4.67702L11.689 4.54202C11.7559 4.44614 11.846 4.36885 11.951 4.31742C12.0559 4.26599 12.1723 4.2421 12.289 4.24802C12.4066 4.25997 12.5196 4.29965 12.6189 4.36379C12.7182 4.42794 12.8008 4.51473 12.86 4.61702C13.8097 6.14981 14.3016 7.92203 14.278 9.72502C14.2945 11.4195 13.8618 13.0881 13.024 14.561C12.9676 14.6701 12.8857 14.764 12.7852 14.8347C12.6848 14.9054 12.5687 14.9508 12.447 14.967ZM15.704 18.086C15.644 18.1861 15.5611 18.2707 15.4623 18.3327C15.3634 18.3947 15.2512 18.4325 15.135 18.443H15.102C14.9923 18.4393 14.885 18.4103 14.7883 18.3583C14.6917 18.3062 14.6084 18.2326 14.545 18.143L14.445 18.01C14.3032 17.8129 14.2232 17.5782 14.215 17.3355C14.2068 17.0928 14.2708 16.8532 14.399 16.647C15.7079 14.5765 16.392 12.1725 16.369 9.72301C16.3979 7.18819 15.663 4.70337 14.26 2.59202C14.1256 2.38521 14.0567 2.14265 14.0624 1.89607C14.0681 1.64949 14.1481 1.41038 14.292 1.21002L14.392 1.07702C14.4565 0.982866 14.5433 0.906179 14.6447 0.853823C14.7461 0.801467 14.8589 0.775077 14.973 0.777016C15.0883 0.785478 15.2001 0.821154 15.299 0.881123C15.3979 0.941092 15.4812 1.02364 15.542 1.12202C17.2378 3.66689 18.1265 6.6641 18.092 9.72202C18.1209 12.6825 17.2915 15.588 15.704 18.087V18.086Z" fill="black"/>
</svg>
